<?xml version="1.0" encoding="utf-8"?>
<!-- Generator: Adobe Illustrator 16.0.0, SVG Export Plug-In . SVG Version: 6.00 Build 0)  -->
<!DOCTYPE svg PUBLIC "-//W3C//DTD SVG 1.1//EN" "http://www.w3.org/Graphics/SVG/1.1/DTD/svg11.dtd">
<svg version="1.1" id="_x30_" xmlns="http://www.w3.org/2000/svg" xmlns:xlink="http://www.w3.org/1999/xlink" x="0px" y="0px"
	 width="841.89px" height="1190.55px" viewBox="0 0 841.89 1190.55" enable-background="new 0 0 841.89 1190.55"
	 xml:space="preserve">
<g id="ARC">
	
		<path fill="none" stroke="#000000" stroke-width="0.7087" stroke-linecap="round" stroke-linejoin="round" stroke-miterlimit="10" d="
		M416.083,667.249c-0.16,2.991,2.136,5.547,5.128,5.707c2.991,0.159,5.547-2.137,5.706-5.128c0.011-0.193,0.011-0.387,0-0.579"/>
</g>
<g id="SPLINE">
	
		<path fill="none" stroke="#000000" stroke-width="0.7087" stroke-linecap="round" stroke-linejoin="round" stroke-miterlimit="10" d="
		M426.925,667.538c-0.784-29.379-1.568-58.758-2.354-88.137c-0.001-0.029-0.001-0.059-0.002-0.087"/>
</g>
<g id="SPLINE_1_">
	
		<path fill="none" stroke="#000000" stroke-width="0.7087" stroke-linecap="round" stroke-linejoin="round" stroke-miterlimit="10" d="
		M418.431,579.313c0,0.029-0.001,0.058-0.002,0.087c-0.785,29.379-1.569,58.758-2.354,88.137"/>
</g>
<g id="ELLIPSE">
	
		<path fill="none" stroke="#000000" stroke-width="0.7087" stroke-linecap="round" stroke-linejoin="round" stroke-miterlimit="10" d="
		M400.939,561.898c0.084,8.729,7.5,16.112,17.492,17.415"/>
</g>
<g id="ELLIPSE_1_">
	
		<path fill="none" stroke="#000000" stroke-width="0.7087" stroke-linecap="round" stroke-linejoin="round" stroke-miterlimit="10" d="
		M424.569,579.313c9.992-1.303,17.407-8.686,17.491-17.415"/>
</g>
<g id="LINE">
	
		<line fill="none" stroke="#000000" stroke-width="0.7087" stroke-linecap="round" stroke-linejoin="round" stroke-miterlimit="10" x1="403.358" y1="518.136" x2="400.939" y2="561.889"/>
</g>
<g id="LINE_1_">
	
		<line fill="none" stroke="#000000" stroke-width="0.7087" stroke-linecap="round" stroke-linejoin="round" stroke-miterlimit="10" x1="439.642" y1="518.136" x2="442.062" y2="561.889"/>
</g>
<g id="LWPOLYLINE">
	
		<polyline fill="none" stroke="#000000" stroke-width="0.7087" stroke-linecap="round" stroke-linejoin="round" stroke-miterlimit="10" points="
		439.642,518.136 434.256,518.136 433.973,557.988 429.721,557.988 429.153,518.136 423.768,518.136 423.484,557.988 
		419.516,557.988 419.232,518.136 413.847,518.136 413.279,557.988 409.027,557.988 408.744,518.136 403.358,518.136 	"/>
</g>
</svg>
