<?xml version="1.0" encoding="utf-8"?>
<!-- Generator: Adobe Illustrator 16.0.0, SVG Export Plug-In . SVG Version: 6.00 Build 0)  -->
<!DOCTYPE svg PUBLIC "-//W3C//DTD SVG 1.1//EN" "http://www.w3.org/Graphics/SVG/1.1/DTD/svg11.dtd">
<svg version="1.1" id="_x30_" xmlns="http://www.w3.org/2000/svg" xmlns:xlink="http://www.w3.org/1999/xlink" x="0px" y="0px"
	 width="841.89px" height="1190.55px" viewBox="0 0 841.89 1190.55" enable-background="new 0 0 841.89 1190.55"
	 xml:space="preserve">
<g id="ARC">
	
		<path fill="none" stroke="#000000" stroke-width="0.7087" stroke-linecap="round" stroke-linejoin="round" stroke-miterlimit="10" d="
		M415.583,667.249c-0.16,2.991,2.136,5.547,5.128,5.707c2.992,0.159,5.547-2.137,5.707-5.128c0.011-0.193,0.011-0.387,0-0.579"/>
</g>
<g id="SPLINE">
	
		<path fill="none" stroke="#000000" stroke-width="0.7087" stroke-linecap="round" stroke-linejoin="round" stroke-miterlimit="10" d="
		M426.425,667.538c-0.784-29.379-1.568-58.758-2.354-88.137c13.528-2.673,19.813-13.552,18.857-32.637
		c-0.957-19.085-8.267-28.627-21.929-28.627s-20.972,9.542-21.928,28.627c-0.957,19.085,5.329,29.964,18.857,32.637
		c-0.785,29.379-1.569,58.758-2.354,88.137"/>
</g>
</svg>
