<?xml version="1.0" encoding="utf-8"?>
<!-- Generator: Adobe Illustrator 16.0.0, SVG Export Plug-In . SVG Version: 6.00 Build 0)  -->
<!DOCTYPE svg PUBLIC "-//W3C//DTD SVG 1.1//EN" "http://www.w3.org/Graphics/SVG/1.1/DTD/svg11.dtd">
<svg version="1.1" id="_x30_" xmlns="http://www.w3.org/2000/svg" xmlns:xlink="http://www.w3.org/1999/xlink" x="0px" y="0px"
	 width="841.89px" height="1190.55px" viewBox="0 0 841.89 1190.55" enable-background="new 0 0 841.89 1190.55"
	 xml:space="preserve">
<g id="ARC">
	
		<path fill="none" stroke="#000000" stroke-width="0.7087" stroke-linecap="round" stroke-linejoin="round" stroke-miterlimit="10" d="
		M302.868,664.569c-0.16,2.991,2.136,5.547,5.128,5.707c2.992,0.159,5.547-2.137,5.707-5.129c0.01-0.192,0.01-0.386,0-0.578"/>
</g>
<g id="SPLINE">
	
		<path fill="none" stroke="#000000" stroke-width="0.7087" stroke-linecap="round" stroke-linejoin="round" stroke-miterlimit="10" d="
		M313.71,664.858c-0.785-29.379-1.569-58.758-2.354-88.137c13.528-2.673,19.814-13.552,18.857-32.637
		c-0.957-19.085-8.266-28.627-21.928-28.627s-20.972,9.542-21.928,28.627c-0.957,19.085,5.329,29.964,18.857,32.637
		c-0.785,29.379-1.569,58.758-2.354,88.137"/>
</g>
<g id="ARC_1_">
	
		<path fill="none" stroke="#000000" stroke-width="0.7087" stroke-linecap="round" stroke-linejoin="round" stroke-miterlimit="10" d="
		M529.664,664.569c-0.159,2.991,2.137,5.547,5.129,5.707c2.991,0.159,5.547-2.137,5.706-5.129c0.011-0.192,0.011-0.386,0-0.578"/>
</g>
<g id="SPLINE_1_">
	
		<path fill="none" stroke="#000000" stroke-width="0.7087" stroke-linecap="round" stroke-linejoin="round" stroke-miterlimit="10" d="
		M540.507,664.858c-0.784-29.379-1.568-58.758-2.354-88.137c-0.001-0.029-0.001-0.059-0.002-0.087"/>
</g>
<g id="SPLINE_2_">
	
		<path fill="none" stroke="#000000" stroke-width="0.7087" stroke-linecap="round" stroke-linejoin="round" stroke-miterlimit="10" d="
		M532.013,576.634c-0.001,0.029-0.001,0.058-0.002,0.087c-0.785,29.379-1.569,58.758-2.354,88.137"/>
</g>
<g id="ELLIPSE">
	
		<path fill="none" stroke="#000000" stroke-width="0.7087" stroke-linecap="round" stroke-linejoin="round" stroke-miterlimit="10" d="
		M514.521,559.219c0.084,8.729,7.499,16.112,17.491,17.415"/>
</g>
<g id="ELLIPSE_1_">
	
		<path fill="none" stroke="#000000" stroke-width="0.7087" stroke-linecap="round" stroke-linejoin="round" stroke-miterlimit="10" d="
		M538.151,576.634c9.992-1.303,17.407-8.686,17.491-17.415"/>
</g>
<g id="LINE">
	
		<line fill="none" stroke="#000000" stroke-width="0.7087" stroke-linecap="round" stroke-linejoin="round" stroke-miterlimit="10" x1="516.94" y1="515.457" x2="514.521" y2="559.209"/>
</g>
<g id="LINE_1_">
	
		<line fill="none" stroke="#000000" stroke-width="0.7087" stroke-linecap="round" stroke-linejoin="round" stroke-miterlimit="10" x1="553.224" y1="515.457" x2="555.644" y2="559.209"/>
</g>
<g id="LWPOLYLINE">
	
		<polyline fill="none" stroke="#000000" stroke-width="0.7087" stroke-linecap="round" stroke-linejoin="round" stroke-miterlimit="10" points="
		553.224,515.457 547.838,515.457 547.555,555.308 543.303,555.308 542.735,515.457 537.35,515.457 537.066,555.308 
		533.098,555.308 532.814,515.457 527.429,515.457 526.861,555.308 522.609,555.308 522.326,515.457 516.94,515.457 	"/>
</g>
<g id="CIRCLE">
	
		<path fill="none" stroke="#000000" stroke-width="0.7087" stroke-linecap="round" stroke-linejoin="round" stroke-miterlimit="10" d="
		M502.447,595.55c0-44.234-35.859-80.093-80.094-80.093c-44.234,0-80.093,35.859-80.093,80.093s35.859,80.093,80.093,80.093
		C466.588,675.643,502.447,639.784,502.447,595.55L502.447,595.55z"/>
</g>
<g id="CIRCLE_1_">
	
		<path fill="none" stroke="#000000" stroke-width="0.7087" stroke-linecap="round" stroke-linejoin="round" stroke-miterlimit="10" d="
		M483.397,595.55c0-33.713-27.33-61.044-61.044-61.044c-33.713,0-61.043,27.331-61.043,61.044c0,33.714,27.33,61.044,61.043,61.044
		C456.067,656.594,483.397,629.264,483.397,595.55L483.397,595.55z"/>
</g>
</svg>
